<svg xmlns="http://www.w3.org/2000/svg" viewBox="0 0 512 512" width="512" height="512">
  <rect width="512" height="512" fill="#f5f5f5"/>
  <path d="M404.3,186.3c-2.8-6.1-4.7-12.6-10.7-16c-14.1-7.9-30.5-8.2-45.7-8.2c-34.6,0-69.1,0-103.7,0c-32.6,0-65.2,0-97.8,0
    c-11.5,0-23.1-0.1-34.1,3.2c-8.9,2.7-13.7,8.6-17.4,16.8c-6,13.4-9.8,27.7-12.4,42.2c-2.3,12.7-3.6,25.6-4,38.5
    c-0.1,4.5-0.1,9.1,0.3,13.6c0.4,4.5,1.1,9.2,3.8,12.8c3.3,4.5,8.8,6.7,14.3,7c7.7,0.5,15.4,0.1,23,0.1c2.5,0,3.7,0.9,3.7,3.6
    c0,16.2-0.1,32.4,0,48.6c0,4.3,1.2,7.8,4.9,10.4c4.5,3.1,11.5,3.3,16.4,0.6c4.6-2.6,5.9-6.6,5.9-11.4c0-14,0-27.9,0-41.9
    c0-2.1,0.6-3.3,2.9-3.2c1.8,0.1,3.7,0,5.5,0c101.2,0,202.4,0,303.6,0c1.5,0,3,0.2,4.5-0.1c1.5-0.3,1.4,0.9,1.4,1.9
    c0,14.4-0.1,28.8,0,43.1c0,4.5,1.2,8.1,5.2,10.7c4.7,3.1,11.8,3.1,16.5,0c4-2.6,5.3-6.2,5.3-10.7c0.1-16.2,0-32.4,0-48.6
    c0-3.2,0.7-4.2,4-4c7.2,0.4,14.5,0.7,21.6-1.3c5-1.4,9.2-3.9,11.4-8.8c2.9-6.3,3.1-13.2,3.4-20c0.6-14.6-0.4-29.2-2.6-43.6
    C414.5,214.7,410.2,199.7,404.3,186.3z M143.3,196.2c65.6,0,131.3,0,196.9,0c9.8,0,19.5,0.2,29.3,0.6c5.5,0.2,11,0.4,16.4,1.5
    c1.3,0.3,3.4,0.4,3.4,2.4c0,2-2.2,2-3.5,2.3c-7.1,1.7-14.4,2-21.7,2.2c-14.9,0.4-29.8,0.6-44.7,0.6c-59.6,0-119.2,0-178.8,0
    c-12.7,0-25.4-0.4-38.1-0.5c-5.5-0.1-10.9-0.3-16.3-1.2c-1.8-0.3-4.1-0.4-4.4-2.8c-0.3-2.4,2.2-2.1,3.8-2.4c5.4-1,10.9-1.2,16.4-1.4
    C116.7,196.5,130,196.2,143.3,196.2z M124.4,275.2c-13.6,0-24.6-11-24.6-24.6c0-13.6,11-24.6,24.6-24.6c13.6,0,24.6,11,24.6,24.6
    C149,264.2,138,275.2,124.4,275.2z M356.6,275.2c-13.6,0-24.6-11-24.6-24.6c0-13.6,11-24.6,24.6-24.6c13.6,0,24.6,11,24.6,24.6
    C381.2,264.2,370.2,275.2,356.6,275.2z" fill="#808080"/>
  <text x="256" y="350" font-family="Arial, sans-serif" font-size="24" fill="#808080" text-anchor="middle">Car Image Not Available</text>
</svg> 